<?xml version="1.0" encoding="UTF-8" standalone="no"?>
<!DOCTYPE svg PUBLIC "-//W3C//DTD SVG 1.1//EN"
 "http://www.w3.org/Graphics/SVG/1.1/DTD/svg11.dtd">
<!-- Generated by graphviz version 9.0.0 (20230911.1827)
 -->
<!-- Title: G Pages: 1 -->
<svg width="656pt" height="711pt"
 viewBox="0.00 0.00 655.75 711.00" xmlns="http://www.w3.org/2000/svg" xmlns:xlink="http://www.w3.org/1999/xlink">
<g id="graph0" class="graph" transform="scale(1 1) rotate(0) translate(4 707)">
<title>G</title>
<polygon fill="white" stroke="none" points="-4,4 -4,-707 651.75,-707 651.75,4 -4,4"/>
<!-- n0 -->
<g id="node1" class="node">
<title>n0</title>
<polygon fill="lightgray" stroke="black" points="647.75,-703 508.75,-703 508.75,-624 647.75,-624 647.75,-703"/>
<text text-anchor="start" x="520.62" y="-681.7" font-family="Times,serif" font-size="14.00">CALL</text>
<text text-anchor="start" x="564.62" y="-681.7" font-family="Times,serif" font-size="14.00">0x400135</text>
<text text-anchor="start" x="520.75" y="-658.7" font-family="Times,serif" font-size="14.00">CMP</text>
<text text-anchor="start" x="564.75" y="-658.7" font-family="Times,serif" font-size="14.00">rax,0x1</text>
<text text-anchor="start" x="520.75" y="-635.7" font-family="Times,serif" font-size="14.00">JE</text>
<text text-anchor="start" x="564.62" y="-635.7" font-family="Times,serif" font-size="14.00">0x40017b</text>
</g>
<!-- n1 -->
<g id="node2" class="node">
<title>n1</title>
<polygon fill="lightgray" stroke="black" points="553.75,-588 434.75,-588 434.75,-463 553.75,-463 553.75,-588"/>
<text text-anchor="start" x="446.62" y="-566.7" font-family="Times,serif" font-size="14.00">MOV</text>
<text text-anchor="start" x="487.75" y="-566.7" font-family="Times,serif" font-size="14.00">rbx,rax</text>
<text text-anchor="start" x="446.75" y="-543.7" font-family="Times,serif" font-size="14.00">XOR</text>
<text text-anchor="start" x="487.75" y="-543.7" font-family="Times,serif" font-size="14.00">rdx,rdx</text>
<text text-anchor="start" x="446.75" y="-520.7" font-family="Times,serif" font-size="14.00">XOR</text>
<text text-anchor="start" x="487.75" y="-520.7" font-family="Times,serif" font-size="14.00">rcx,rcx</text>
<text text-anchor="start" x="446.75" y="-497.7" font-family="Times,serif" font-size="14.00">XOR</text>
<text text-anchor="start" x="487.75" y="-497.7" font-family="Times,serif" font-size="14.00">rax,rax</text>
<text text-anchor="start" x="446.75" y="-474.7" font-family="Times,serif" font-size="14.00">SUB</text>
<text text-anchor="start" x="487.38" y="-474.7" font-family="Times,serif" font-size="14.00">rbx,0x1</text>
</g>
<!-- n0&#45;&gt;n1 -->
<g id="edge4" class="edge">
<title>n0&#45;&gt;n1</title>
<path fill="none" stroke="red" d="M531.25,-623.58C531.25,-623.58 531.25,-599.98 531.25,-599.98"/>
<polygon fill="red" stroke="red" points="534.75,-599.98 531.25,-589.98 527.75,-599.98 534.75,-599.98"/>
</g>
<!-- n5 -->
<g id="node6" class="node">
<title>n5</title>
<polygon fill="lightgray" stroke="black" points="532.75,-128 385.75,-128 385.75,-72 532.75,-72 532.75,-128"/>
<text text-anchor="start" x="397.62" y="-106.7" font-family="Times,serif" font-size="14.00">MOV</text>
<text text-anchor="start" x="438.5" y="-106.7" font-family="Times,serif" font-size="14.00">eax,0x1337</text>
<text text-anchor="start" x="397.75" y="-83.7" font-family="Times,serif" font-size="14.00">JMP</text>
<text text-anchor="start" x="438.75" y="-83.7" font-family="Times,serif" font-size="14.00">0x400185</text>
</g>
<!-- n0&#45;&gt;n5 -->
<g id="edge6" class="edge">
<title>n0&#45;&gt;n5</title>
<path fill="none" stroke="green" d="M618,-623.88C618,-495.61 618,-100 618,-100 618,-100 544.56,-100 544.56,-100"/>
<polygon fill="green" stroke="green" points="544.56,-96.5 534.56,-100 544.56,-103.5 544.56,-96.5"/>
</g>
<!-- n2 -->
<g id="node3" class="node">
<title>n2</title>
<polygon fill="lightgray" stroke="black" points="407.75,-427 272.75,-427 272.75,-371 407.75,-371 407.75,-427"/>
<text text-anchor="start" x="284.5" y="-405.7" font-family="Times,serif" font-size="14.00">CMP</text>
<text text-anchor="start" x="324.75" y="-405.7" font-family="Times,serif" font-size="14.00">rcx,rbx</text>
<text text-anchor="start" x="284.75" y="-382.7" font-family="Times,serif" font-size="14.00">JE</text>
<text text-anchor="start" x="324.62" y="-382.7" font-family="Times,serif" font-size="14.00">0x400182</text>
</g>
<!-- n1&#45;&gt;n2 -->
<g id="edge3" class="edge">
<title>n1&#45;&gt;n2</title>
<path fill="none" stroke="black" d="M494.25,-462.62C494.25,-430.87 494.25,-399 494.25,-399 494.25,-399 419.76,-399 419.76,-399"/>
<polygon fill="black" stroke="black" points="419.76,-395.5 409.76,-399 419.76,-402.5 419.76,-395.5"/>
</g>
<!-- n3 -->
<g id="node4" class="node">
<title>n3</title>
<polygon fill="lightgray" stroke="black" points="588.25,-335 330.25,-335 330.25,-164 588.25,-164 588.25,-335"/>
<text text-anchor="start" x="342.12" y="-313.7" font-family="Times,serif" font-size="14.00">MOV</text>
<text text-anchor="start" x="383.25" y="-313.7" font-family="Times,serif" font-size="14.00">dl,BYTE</text>
<text text-anchor="start" x="460.12" y="-313.7" font-family="Times,serif" font-size="14.00">PTR</text>
<text text-anchor="start" x="495.25" y="-313.7" font-family="Times,serif" font-size="14.00">[rdi+rcx*1]</text>
<text text-anchor="start" x="342.12" y="-290.7" font-family="Times,serif" font-size="14.00">MOV</text>
<text text-anchor="start" x="383.25" y="-290.7" font-family="Times,serif" font-size="14.00">dh,BYTE</text>
<text text-anchor="start" x="460.12" y="-290.7" font-family="Times,serif" font-size="14.00">PTR</text>
<text text-anchor="start" x="495.25" y="-290.7" font-family="Times,serif" font-size="14.00">[rsi+rcx*1]</text>
<text text-anchor="start" x="342.12" y="-267.7" font-family="Times,serif" font-size="14.00">MOV</text>
<text text-anchor="start" x="383.25" y="-267.7" font-family="Times,serif" font-size="14.00">al,dl</text>
<text text-anchor="start" x="342.25" y="-244.7" font-family="Times,serif" font-size="14.00">SUB</text>
<text text-anchor="start" x="383.25" y="-244.7" font-family="Times,serif" font-size="14.00">al,cl</text>
<text text-anchor="start" x="342.25" y="-221.7" font-family="Times,serif" font-size="14.00">ADD</text>
<text text-anchor="start" x="383.25" y="-221.7" font-family="Times,serif" font-size="14.00">al,0x14</text>
<text text-anchor="start" x="342.25" y="-198.7" font-family="Times,serif" font-size="14.00">CMP</text>
<text text-anchor="start" x="383.25" y="-198.7" font-family="Times,serif" font-size="14.00">al,dh</text>
<text text-anchor="start" x="342.25" y="-175.7" font-family="Times,serif" font-size="14.00">JNE</text>
<text text-anchor="start" x="383.12" y="-175.7" font-family="Times,serif" font-size="14.00">0x40017b</text>
</g>
<!-- n2&#45;&gt;n3 -->
<g id="edge7" class="edge">
<title>n2&#45;&gt;n3</title>
<path fill="none" stroke="red" d="M369,-370.53C369,-370.53 369,-346.71 369,-346.71"/>
<polygon fill="red" stroke="red" points="372.5,-346.71 369,-336.71 365.5,-346.71 372.5,-346.71"/>
</g>
<!-- n6 -->
<g id="node7" class="node">
<title>n6</title>
<polygon fill="lightgray" stroke="black" points="112.5,-267.5 0,-267.5 0,-231.5 112.5,-231.5 112.5,-267.5"/>
<text text-anchor="start" x="12" y="-244.82" font-family="Times,serif" font-size="14.00">XOR</text>
<text text-anchor="start" x="49.5" y="-244.82" font-family="Times,serif" font-size="14.00">rax,rax</text>
</g>
<!-- n2&#45;&gt;n6 -->
<g id="edge5" class="edge">
<title>n2&#45;&gt;n6</title>
<path fill="none" stroke="green" d="M281.88,-370.79C281.88,-327.33 281.88,-249 281.88,-249 281.88,-249 124.41,-249 124.41,-249"/>
<polygon fill="green" stroke="green" points="124.41,-245.5 114.41,-249 124.41,-252.5 124.41,-245.5"/>
</g>
<!-- n4 -->
<g id="node5" class="node">
<title>n4</title>
<polygon fill="lightgray" stroke="black" points="309.25,-128 179.25,-128 179.25,-72 309.25,-72 309.25,-128"/>
<text text-anchor="start" x="191.25" y="-106.7" font-family="Times,serif" font-size="14.00">INC</text>
<text text-anchor="start" x="226.25" y="-106.7" font-family="Times,serif" font-size="14.00">rcx</text>
<text text-anchor="start" x="191.12" y="-83.7" font-family="Times,serif" font-size="14.00">JMP</text>
<text text-anchor="start" x="226.12" y="-83.7" font-family="Times,serif" font-size="14.00">0x400161</text>
</g>
<!-- n3&#45;&gt;n4 -->
<g id="edge1" class="edge">
<title>n3&#45;&gt;n4</title>
<path fill="none" stroke="red" d="M330.06,-197C312.36,-197 300.12,-197 300.12,-197 300.12,-197 300.12,-139.83 300.12,-139.83"/>
<polygon fill="red" stroke="red" points="303.63,-139.83 300.13,-129.83 296.63,-139.83 303.63,-139.83"/>
</g>
<!-- n3&#45;&gt;n5 -->
<g id="edge8" class="edge">
<title>n3&#45;&gt;n5</title>
<path fill="none" stroke="green" d="M459.25,-163.84C459.25,-163.84 459.25,-139.83 459.25,-139.83"/>
<polygon fill="green" stroke="green" points="462.75,-139.83 459.25,-129.83 455.75,-139.83 462.75,-139.83"/>
</g>
<!-- n4&#45;&gt;n2 -->
<g id="edge9" class="edge">
<title>n4&#45;&gt;n2</title>
<path fill="none" stroke="black" d="M291,-128.4C291,-128.4 291,-359.28 291,-359.28"/>
<polygon fill="black" stroke="black" points="287.5,-359.28 291,-369.28 294.5,-359.28 287.5,-359.28"/>
</g>
<!-- n7 -->
<g id="node8" class="node">
<title>n7</title>
<polygon fill="lightgray" stroke="black" points="280.25,-36 226.25,-36 226.25,0 280.25,0 280.25,-36"/>
<text text-anchor="start" x="238.25" y="-13.32" font-family="Times,serif" font-size="14.00">RET</text>
</g>
<!-- n5&#45;&gt;n7 -->
<g id="edge2" class="edge">
<title>n5&#45;&gt;n7</title>
<path fill="none" stroke="black" d="M459.25,-71.78C459.25,-48.06 459.25,-18 459.25,-18 459.25,-18 292.12,-18 292.12,-18"/>
<polygon fill="black" stroke="black" points="292.12,-14.5 282.12,-18 292.12,-21.5 292.12,-14.5"/>
</g>
<!-- n6&#45;&gt;n7 -->
<g id="edge10" class="edge">
<title>n6&#45;&gt;n7</title>
<path fill="none" stroke="black" d="M56.25,-231.33C56.25,-176.76 56.25,-18 56.25,-18 56.25,-18 214.34,-18 214.34,-18"/>
<polygon fill="black" stroke="black" points="214.34,-21.5 224.34,-18 214.34,-14.5 214.34,-21.5"/>
</g>
</g>
</svg>
